<svg xmlns="http://www.w3.org/2000/svg" viewBox="0 0 32 32">
  <rect width="32" height="32" rx="4" fill="#f5f0eb"/>
  <path d="M9.4 22.62C9.01333 22.62 8.56667 22.6 8.06 22.56C7.87333 22.5467 7.63333 22.5333 7.34 22.52C7.06 22.5067 6.74667 22.5 6.4 22.5L5.04 22.52C4.8 22.5333 4.46667 22.54 4.04 22.54C4.01333 22.54 4 22.5 4 22.42C4 22.34 4.01333 22.3 4.04 22.3C4.54667 22.3 4.91333 22.2667 5.14 22.2C5.38 22.1333 5.54 22.0067 5.62 21.82C5.71333 21.62 5.76 21.32 5.76 20.92V11.66C5.76 11.26 5.72 10.9667 5.64 10.78C5.56 10.5933 5.4 10.4667 5.16 10.4C4.93333 10.32 4.56667 10.28 4.06 10.28C4.03333 10.28 4.02 10.24 4.02 10.16C4.02 10.08 4.03333 10.04 4.06 10.04L5.06 10.06C5.62 10.0867 6.06667 10.1 6.4 10.1C6.90667 10.1 7.40667 10.08 7.9 10.04C8.48667 10.0133 8.89333 10 9.12 10C10.5067 10 11.7333 10.2667 12.8 10.8C13.8667 11.3333 14.6933 12.06 15.28 12.98C15.88 13.9 16.18 14.9333 16.18 16.08C16.18 17.3733 15.8733 18.52 15.26 19.52C14.66 20.5067 13.84 21.2733 12.8 21.82C11.76 22.3533 10.6267 22.62 9.4 22.62ZM9.2 22.32C10.2667 22.32 11.2133 22.1 12.04 21.66C12.8667 21.2067 13.5067 20.5467 13.96 19.68C14.4267 18.8 14.66 17.7467 14.66 16.52C14.66 15.36 14.44 14.3067 14 13.36C13.56 12.4133 12.9333 11.6667 12.12 11.12C11.3067 10.5733 10.3667 10.3 9.3 10.3C8.72667 10.3 8.28 10.3333 7.96 10.4C7.65333 10.4667 7.42667 10.6 7.28 10.8C7.13333 11 7.06 11.3 7.06 11.7V20.7C7.06 21.1 7.11333 21.4133 7.22 21.64C7.34 21.8667 7.55333 22.04 7.86 22.16C8.18 22.2667 8.62667 22.32 9.2 22.32Z" fill="black"/>
<path d="M20.8681 20.84C20.8681 21.2267 20.9081 21.5067 20.9881 21.68C21.0681 21.8533 21.2148 21.9733 21.4281 22.04C21.6415 22.0933 21.9881 22.12 22.4681 22.12H24.6481C25.4081 22.12 26.0148 21.8867 26.4681 21.42C26.9215 20.9533 27.2215 20.3067 27.3681 19.48C27.3681 19.44 27.4015 19.4267 27.4681 19.44C27.5481 19.44 27.5881 19.46 27.5881 19.5C27.4681 20.6067 27.4081 21.52 27.4081 22.24C27.4081 22.3467 27.3881 22.4267 27.3481 22.48C27.3081 22.52 27.2281 22.54 27.1081 22.54H17.8681C17.8415 22.54 17.8281 22.5 17.8281 22.42C17.8281 22.34 17.8415 22.3 17.8681 22.3C18.3748 22.3 18.7415 22.2667 18.9681 22.2C19.2081 22.1333 19.3681 22.0067 19.4481 21.82C19.5281 21.62 19.5681 21.32 19.5681 20.92V11.66C19.5681 11.26 19.5281 10.9667 19.4481 10.78C19.3681 10.5933 19.2081 10.4667 18.9681 10.4C18.7415 10.32 18.3748 10.28 17.8681 10.28C17.8415 10.28 17.8281 10.24 17.8281 10.16C17.8281 10.08 17.8415 10.04 17.8681 10.04L18.8481 10.06C19.4081 10.0867 19.8615 10.1 20.2081 10.1C20.5815 10.1 21.0481 10.0867 21.6081 10.06L22.5681 10.04C22.6081 10.04 22.6281 10.08 22.6281 10.16C22.6281 10.24 22.6081 10.28 22.5681 10.28C22.0748 10.28 21.7081 10.32 21.4681 10.4C21.2281 10.4667 21.0681 10.6 20.9881 10.8C20.9081 10.9867 20.8681 11.28 20.8681 11.68V20.84Z" fill="black"/>
</svg>
